<svg id="Layer_1" data-name="Layer 1" xmlns="http://www.w3.org/2000/svg" viewBox="0 0 580.65 563.1"><defs><style>.cls-1{fill:#3a3a3a;}</style></defs><title>favicon</title><path class="cls-1" d="M271.31,253.38Q278.46,126.68,285.67,0,217.5,118.14,149.24,236.32l-58.69-19.1L224,283.61c45,22.42,44.47,19.79,47.31-30.23"/><path class="cls-1" d="M212.25,355.7Q106.13,425.26,0,494.79,70.36,373,140.73,251.08l74,48.51c42.1,27.59,39.36,28.65-2.5,56.11"/><path class="cls-1" d="M368.43,355.7q106.08,69.56,212.22,139.09Q512.43,376.7,444.22,258.51l45.88-41.29L365.9,299.59c-41.94,27.83-39.4,28.65,2.53,56.11"/><path class="cls-1" d="M309.34,253.38Q302.17,126.68,295,0q70.41,121.88,140.76,243.76-39.56,19.92-79.06,39.85c-44.94,22.67-44.51,19.79-47.34-30.23"/><path class="cls-1" d="M230.94,388.47Q117.66,445.58,4.34,502.7H277.22L290,563.1l-9.25-148.77c-3.1-50.24-5.11-48.43-49.85-25.86"/><path class="cls-1" d="M349.1,388.47Q462.44,445.58,575.7,502.7H294.25q2.5-44.19,5-88.37c2.84-50.25,5.15-48.43,49.85-25.86"/></svg>