<?xml version="1.0" encoding="utf-8"?>
<!-- Generator: Adobe Illustrator 24.0.2, SVG Export Plug-In . SVG Version: 6.00 Build 0)  -->
<svg version="1.1" id="Layer_1" xmlns="http://www.w3.org/2000/svg" xmlns:xlink="http://www.w3.org/1999/xlink" x="0px" y="0px"
	 viewBox="0 0 47.43 47.43" style="enable-background:new 0 0 47.43 47.43;" xml:space="preserve">
<style type="text/css">
	.st0{fill:#232221;}
	.st1{fill:#FFFFFF;}
</style>
<path id="XMLID_1823_" class="st0" d="M38.96,47.43H8.47C3.79,47.43,0,43.64,0,38.96V8.47C0,3.79,3.79,0,8.47,0h30.49
	c4.68,0,8.47,3.79,8.47,8.47v30.49C47.43,43.64,43.64,47.43,38.96,47.43z"/>
<path id="XMLID_1822_" class="st1" d="M20.1,38.05h5.77V23.59h4.03l0.43-4.84h-4.46c0,0,0-1.81,0-2.76c0-1.14,0.23-1.59,1.33-1.59
	c0.89,0,3.12,0,3.12,0V9.38c0,0-3.29,0-4,0c-4.3,0-6.23,1.89-6.23,5.51c0,3.15,0,3.86,0,3.86h-3v4.9h3V38.05z"/>
</svg>
