<?xml version="1.0" encoding="utf-8"?>
<!-- Generator: Adobe Illustrator 24.0.2, SVG Export Plug-In . SVG Version: 6.00 Build 0)  -->
<svg version="1.1" id="Layer_1" xmlns="http://www.w3.org/2000/svg" xmlns:xlink="http://www.w3.org/1999/xlink" x="0px" y="0px"
	 viewBox="0 0 47.43 47.43" style="enable-background:new 0 0 47.43 47.43;" xml:space="preserve">
<style type="text/css">
	.st0{display:none;fill:#232221;}
	.st1{display:none;fill:#FFFFFF;}
	.st2{fill:#232221;}
	.st3{fill:#FFFFFF;}
</style>
<path id="XMLID_1823_" class="st0" d="M38.96,47.43H8.47C3.79,47.43,0,43.64,0,38.96V8.47C0,3.79,3.79,0,8.47,0h30.49
	c4.68,0,8.47,3.79,8.47,8.47v30.49C47.43,43.64,43.64,47.43,38.96,47.43z"/>
<path id="XMLID_1822_" class="st1" d="M20.1,38.05h5.77V23.59h4.03l0.43-4.84h-4.46c0,0,0-1.81,0-2.76c0-1.14,0.23-1.59,1.33-1.59
	c0.89,0,3.12,0,3.12,0V9.38c0,0-3.29,0-4,0c-4.3,0-6.23,1.89-6.23,5.51c0,3.15,0,3.86,0,3.86h-3v4.9h3V38.05z"/>
<g id="XMLID_1811_">
	<path id="XMLID_1820_" class="st2" d="M38.96,47.43H8.47C3.79,47.43,0,43.64,0,38.96V8.47C0,3.79,3.79,0,8.47,0h30.49
		c4.68,0,8.47,3.79,8.47,8.47v30.49C47.43,43.64,43.64,47.43,38.96,47.43z"/>
	<g id="XMLID_1812_">
		<path id="XMLID_1817_" class="st3" d="M23.71,13.05c3.47,0,3.88,0.01,5.25,0.08c1.27,0.06,1.96,0.27,2.41,0.45
			c0.61,0.24,1.04,0.52,1.49,0.97c0.46,0.46,0.74,0.89,0.97,1.49c0.18,0.46,0.39,1.15,0.45,2.41c0.06,1.37,0.08,1.78,0.08,5.25
			c0,3.47-0.01,3.88-0.08,5.25c-0.06,1.27-0.27,1.96-0.45,2.41c-0.24,0.61-0.52,1.04-0.97,1.5c-0.45,0.45-0.89,0.74-1.49,0.97
			c-0.46,0.18-1.15,0.39-2.41,0.45c-1.37,0.06-1.78,0.08-5.25,0.08s-3.88-0.01-5.25-0.08c-1.27-0.06-1.96-0.27-2.41-0.45
			c-0.61-0.24-1.04-0.52-1.5-0.97c-0.45-0.46-0.74-0.89-0.97-1.5c-0.18-0.46-0.39-1.15-0.45-2.41c-0.06-1.37-0.08-1.78-0.08-5.25
			c0-3.47,0.01-3.88,0.08-5.25c0.06-1.27,0.27-1.96,0.45-2.41c0.24-0.61,0.52-1.04,0.97-1.49c0.46-0.46,0.89-0.74,1.5-0.97
			c0.46-0.18,1.15-0.39,2.41-0.45C19.83,13.07,20.24,13.05,23.71,13.05 M23.71,10.71c-3.53,0-3.97,0.02-5.36,0.08
			c-1.38,0.06-2.33,0.28-3.16,0.6c-0.86,0.33-1.58,0.78-2.3,1.5c-0.72,0.72-1.17,1.45-1.5,2.3c-0.32,0.83-0.54,1.77-0.6,3.16
			c-0.06,1.39-0.08,1.83-0.08,5.36s0.01,3.97,0.08,5.36c0.06,1.38,0.28,2.33,0.6,3.16c0.33,0.85,0.78,1.58,1.5,2.3
			c0.72,0.72,1.45,1.17,2.3,1.5c0.83,0.32,1.77,0.54,3.16,0.6c1.39,0.06,1.83,0.08,5.36,0.08s3.97-0.01,5.36-0.08
			c1.38-0.06,2.33-0.28,3.16-0.6c0.86-0.33,1.58-0.78,2.3-1.5c0.72-0.72,1.17-1.45,1.5-2.3c0.32-0.83,0.54-1.77,0.6-3.16
			c0.06-1.39,0.08-1.83,0.08-5.36s-0.01-3.97-0.08-5.36c-0.06-1.38-0.28-2.33-0.6-3.16c-0.33-0.85-0.78-1.58-1.5-2.3
			c-0.72-0.72-1.45-1.17-2.3-1.5c-0.83-0.32-1.77-0.54-3.16-0.6C27.69,10.73,27.24,10.71,23.71,10.71"/>
		<path id="XMLID_1814_" class="st3" d="M23.71,17.04c-3.69,0-6.68,2.99-6.68,6.68s2.99,6.68,6.68,6.68c3.69,0,6.68-2.99,6.68-6.68
			S27.4,17.04,23.71,17.04 M23.71,28.05c-2.39,0-4.33-1.94-4.33-4.33c0-2.39,1.94-4.33,4.33-4.33s4.33,1.94,4.33,4.33
			C28.05,26.11,26.11,28.05,23.71,28.05"/>
		<path id="XMLID_1813_" class="st3" d="M32.21,16.77c0,0.86-0.7,1.56-1.56,1.56c-0.86,0-1.56-0.7-1.56-1.56
			c0-0.86,0.7-1.56,1.56-1.56C31.52,15.21,32.21,15.91,32.21,16.77"/>
	</g>
</g>
</svg>
