<?xml version="1.0" encoding="utf-8"?>
<!-- Generator: Adobe Illustrator 24.0.2, SVG Export Plug-In . SVG Version: 6.00 Build 0)  -->
<svg version="1.1" id="Layer_3" xmlns="http://www.w3.org/2000/svg" xmlns:xlink="http://www.w3.org/1999/xlink" x="0px" y="0px"
	 viewBox="0 0 1575.54 271.61" style="enable-background:new 0 0 1575.54 271.61;" xml:space="preserve">
<style type="text/css">
	.st0{display:none;fill:#111111;}
	.st1{opacity:0.04;fill:#EAEAEA;}
	.st2{fill:#F7F7F7;}
	.st3{font-family:'Orbitron-Regular';}
	.st4{font-size:134.0183px;}
	.st5{fill:url(#SVGID_1_);}
</style>
<rect x="-188.23" y="-877.19" class="st0" width="2000" height="2000"/>
<path class="st1" d="M1523.75,271.61H51.79C23.19,271.61,0,248.43,0,219.83V51.79C0,23.19,23.19,0,51.79,0h1471.96
	c28.6,0,51.79,23.19,51.79,51.79v168.04C1575.54,248.43,1552.35,271.61,1523.75,271.61z"/>
<text transform="matrix(1 0 0 1 288.9297 192.0557)" class="st2 st3 st4">weDevelopStuff</text>
<g>
	<linearGradient id="SVGID_1_" gradientUnits="userSpaceOnUse" x1="36.7677" y1="135.8067" x2="246.7677" y2="135.8067">
		<stop  offset="2.706517e-06" style="stop-color:#76FFEC"/>
		<stop  offset="0.1946" style="stop-color:#77E4E6"/>
		<stop  offset="0.6092" style="stop-color:#79A0D8"/>
		<stop  offset="1" style="stop-color:#7B5BCA"/>
	</linearGradient>
	<path class="st5" d="M170.47,234.55c-0.06-0.71-0.44-1.35-1.04-1.73c-1.56-0.97-3.09-2.03-4.58-3.17
		c-1.49-1.14-2.91-2.35-4.25-3.61c-0.52-0.49-1.24-0.69-1.94-0.56l-14.63,2.69c-0.86,0.16-1.73-0.2-2.24-0.9
		c-3.17-4.29-5.8-8.89-7.9-13.68c-0.35-0.8-0.22-1.73,0.35-2.39l9.64-11.32c0.46-0.54,0.65-1.27,0.49-1.97
		c-0.85-3.62-1.33-7.32-1.45-11.03c-0.02-0.71-0.39-1.37-0.98-1.77l-12.24-8.44c-0.72-0.49-1.08-1.36-0.95-2.22
		c0.78-5.17,2.14-10.29,4.09-15.26c0.32-0.81,1.06-1.38,1.93-1.45l14.83-1.19c0.71-0.06,1.35-0.44,1.73-1.04
		c0.97-1.56,2.03-3.09,3.17-4.58c0.42-0.55,0.85-1.09,1.29-1.62c1.02-1.23,2.96-1.08,3.76,0.3l6.02,10.43
		c0.44,0.76,0.4,1.7-0.09,2.42c-11.9,17.6-8.17,41.66,8.91,54.76c17.06,13.09,41.22,10.5,55.15-5.5
		c16.96-19.48,12.72-47.48-9.25-61.07c-7.42-4.59-15.86-6.51-24.1-5.93c-0.87,0.06-1.69-0.38-2.13-1.14l-6.02-10.42
		c-0.79-1.38,0.02-3.13,1.59-3.4c2.51-0.43,5.04-0.68,7.58-0.77c0.72-0.02,1.4-0.38,1.81-0.98l8.44-12.25
		c0.49-0.72,1.36-1.08,2.22-0.95c5.17,0.78,10.29,2.14,15.26,4.09c0.81,0.32,1.38,1.06,1.45,1.93l1.19,14.83
		c0.06,0.71,0.44,1.35,1.04,1.73c1.56,0.97,3.09,2.03,4.58,3.17c1.49,1.14,2.91,2.35,4.25,3.61c0.52,0.49,1.24,0.69,1.94,0.56
		l7.39-1.36V50.04c0-10.62-8.61-19.23-19.23-19.23H56c-10.62,0-19.23,8.61-19.23,19.23v171.54c0,10.62,8.61,19.23,19.23,19.23
		h114.97L170.47,234.55z M202.16,150.63c11.06,0.96,21.48,7.17,27.36,17.59c9.1,16.12,3.9,36.76-11.76,46.61
		c-16.83,10.59-38.94,5.01-48.79-12.05c-5.96-10.32-6.03-22.42-1.27-32.42c0.78-1.65,3.09-1.74,4.01-0.16l2.56,4.43
		c0.33,0.57,0.4,1.26,0.18,1.87c-2.51,7.01-2.04,15.03,1.98,21.98c7.47,12.93,24.27,17.11,36.97,8.94
		c11.26-7.24,15.26-22.02,9.19-33.95c-3.87-7.59-10.83-12.44-18.48-13.91c-0.64-0.12-1.19-0.52-1.51-1.09l-2.57-4.46
		C199.09,152.44,200.34,150.48,202.16,150.63z M86.07,181.2c-8.38,4.84-19.16,3.04-25.2-4.52c-6.54-8.18-5.44-19.35,1.32-26.15
		c-2.03-2.34-3.77-5.03-5.1-8.08c-5.98-13.79-0.18-31.85,12.74-39.54c4.75-2.83,9.93-4.25,15.08-4.41
		c-1.97-15.22,5.15-30.83,19.27-38.99c14.53-8.39,32.19-6.41,44.44,3.63c2.55-5.77,7.23-10.68,13.72-13.39
		c9.84-4.11,21.3-1.57,28.57,6.22c2.83,3.03,4.69,6.44,5.79,9.98c1.97-1.71,4.27-3.13,6.93-4.12c9.85-3.67,20.78-0.11,26.56,8.67
		c6.93,10.54,3.83,24.47-6.47,31.17l0.02,0.03l-31.71,18.31c-1.77,1.02-4.02,0.41-5.04-1.35l-8.3-14.38
		c-0.51-0.88-0.21-2.01,0.68-2.52l1.93-1.12c1.25-0.72,1.22-2.54-0.05-3.22l-19.24-10.4c-1.21-0.65-2.68,0.2-2.72,1.57l-0.61,21.86
		c-0.04,1.44,1.52,2.37,2.77,1.65l1.93-1.12c0.88-0.51,2.01-0.21,2.52,0.68l5.54,9.59l4.61,7.99l23.99,41.55
		c0.51,0.88,1.64,1.19,2.52,0.68l1.93-1.12c1.25-0.72,2.81,0.21,2.77,1.65l-0.61,21.86c-0.04,1.37-1.51,2.23-2.72,1.57l-19.24-10.4
		c-1.27-0.69-1.3-2.5-0.05-3.22l1.93-1.12c0.88-0.51,1.19-1.64,0.68-2.52l-22.15-38.36c-1.02-1.77-3.28-2.37-5.04-1.35l-71.35,41.19
		L86.07,181.2z"/>
</g>
</svg>
