<svg id="Layer_1" data-name="Layer 1" xmlns="http://www.w3.org/2000/svg" xmlns:xlink="http://www.w3.org/1999/xlink" viewBox="0 0 1000 1000"><defs><style>.cls-1{fill:url(#linear-gradient);}</style><linearGradient id="linear-gradient" y1="500" x2="1000" y2="500" gradientUnits="userSpaceOnUse"><stop offset="0" stop-color="#76ffec"/><stop offset="0.19" stop-color="#77e4e6"/><stop offset="0.61" stop-color="#79a0d8"/><stop offset="1" stop-color="#7b5bca"/></linearGradient></defs><title>wedevelopstufflogo</title><path class="cls-1" d="M636.66,970.19a10.69,10.69,0,0,0-5-8.23q-11.16-6.93-21.83-15.09t-20.23-17.18a10.67,10.67,0,0,0-9.23-2.66l-69.68,12.82A10.85,10.85,0,0,1,500,935.57a336.7,336.7,0,0,1-37.6-65.16A10.85,10.85,0,0,1,464.09,859L510,805.13a10.69,10.69,0,0,0,2.32-9.36,269.6,269.6,0,0,1-6.91-52.53,10.72,10.72,0,0,0-4.66-8.44l-58.31-40.18a10.85,10.85,0,0,1-4.53-10.57,336.3,336.3,0,0,1,19.45-72.67,10.87,10.87,0,0,1,9.22-6.9l70.62-5.65a10.67,10.67,0,0,0,8.23-5q6.93-11.16,15.09-21.83,3-3.91,6.14-7.69a10.93,10.93,0,0,1,17.9,1.44l28.66,49.64a10.87,10.87,0,0,1-.41,11.52c-56.68,83.82-38.89,198.36,42.45,260.77s196.29,50,262.62-26.2c80.79-92.78,60.59-226.08-44-290.8a192,192,0,0,0-114.76-28.24,10.83,10.83,0,0,1-10.14-5.4l-28.66-49.65a10.9,10.9,0,0,1,7.56-16.19A268.38,268.38,0,0,1,764,467.59a10.87,10.87,0,0,0,8.61-4.65l40.2-58.33a10.85,10.85,0,0,1,10.57-4.53A336.6,336.6,0,0,1,896,419.53a10.87,10.87,0,0,1,6.89,9.22l5.65,70.63a10.67,10.67,0,0,0,5,8.22q11.18,6.95,21.83,15.09t20.23,17.18a10.69,10.69,0,0,0,9.23,2.67l35.19-6.48V91.58A91.58,91.58,0,0,0,908.42,0H91.58A91.58,91.58,0,0,0,0,91.58V908.42A91.58,91.58,0,0,0,91.58,1000H639.05ZM787.59,570.61a165.68,165.68,0,0,1,130.28,83.77c43.31,76.74,18.56,175-56,222A166,166,0,0,1,623.47,664.54a10.79,10.79,0,0,1,19.08-.77l12.19,21.12a10.66,10.66,0,0,1,.83,8.92A125,125,0,0,0,841.05,841c53.63-34.48,72.68-104.85,43.75-161.66a124.74,124.74,0,0,0-88-66.22,10.67,10.67,0,0,1-7.21-5.17l-12.26-21.24A10.78,10.78,0,0,1,787.59,570.61ZM234.79,716.17c-39.9,23-91.23,14.47-120-21.5a93.37,93.37,0,0,1,6.3-124.52,149.23,149.23,0,0,1-24.27-38.48C68.32,466,95.94,380,157.47,343.4a149.07,149.07,0,0,1,71.79-21A186.61,186.61,0,0,1,532.62,154,122.27,122.27,0,0,1,598,90.28C644.81,70.73,699.39,82.81,734,119.92a122,122,0,0,1,27.57,47.55A106.89,106.89,0,1,1,890.27,337.55l.09.13-151,87.19a17.58,17.58,0,0,1-24-6.43l-39.54-68.5a8.78,8.78,0,0,1,3.22-12l9.21-5.32a8.79,8.79,0,0,0-.22-15.34l-91.61-49.52a8.79,8.79,0,0,0-13,7.49l-2.92,104.09a8.79,8.79,0,0,0,13.18,7.86l9.21-5.32a8.79,8.79,0,0,1,12,3.22l26.36,45.66,22,38.05L777.48,666.68a8.78,8.78,0,0,0,12,3.22l9.22-5.32a8.78,8.78,0,0,1,13.17,7.86L809,776.53A8.78,8.78,0,0,1,796,784L704.38,734.5a8.78,8.78,0,0,1-.21-15.34l9.21-5.32a8.8,8.8,0,0,0,3.22-12L611.14,519.18a17.58,17.58,0,0,0-24-6.43L247.39,708.9Z"/></svg>